{"title":"Dead.Drop.2013.DVDRip.X264.AC3 - BiTo","uid":9034288,"size":1120675234,"categoryP":"video","categoryS":"movies","magnet":"?xt=urn:btih:28c0d45b2f91456f3d0eda463d89cf10036b7371&amp;dn=Dead.Drop.2013.DVDRip.X264.AC3+-+BiTo&amp;tr=udp%3A%2F%2Ftracker.openbittorrent.com%3A80&amp;tr=udp%3A%2F%2Fopen.demonii.com%3A1337&amp;tr=udp%3A%2F%2Ftracker.coppersurfer.tk%3A6969&amp;tr=udp%3A%2F%2Fexodus.desync.com%3A6969","seeders":4,"leechers":2,"uploader":"xxxlavalxxx","files":-1,"time":1381476885,"description":" &lt;a href=&quot;http://www.imdb.com/title/tt2240966/&quot; rel=&quot;nofollow&quot; target=&quot;_NEW&quot;&gt;http://www.imdb.com/title/tt2240966/&lt;/a&gt;\n\n\nAfter surviving a fall from a plane 3000-feet over the ocean, a former CIA operative turned government contractor re-infiltrates a dangerous North Mexican drug trafficking ring to find his own killer. With his memory unraveling, he descends into a murderous rampage while trying to uncover the truth. Who threw him from the plane? Was it his best friend?\n\nDirector: R. Ellis Frazier\nWriter: Benjamin Budd\nStars: Cole Hauser, Luke Goss, Nestor Carbonell \nGenres: Action | Crime | Drama | Mystery | Thriller\nCountry: Mexico | USA\nLanguage: English\n\n\n\nSource: DVDR\nSample: Yes\nAudio: Eng @ 6 CH\nCodec: X264\nContainer: Mkv\n\n\nID                                       : 1\nFormat                                   : AVC\nFormat/Info                              : Advanced Video Codec\nFormat profile                           : &lt;a class=&quot;__cf_email__&quot; href=&quot;/cdn-cgi/l/email-protection&quot; data-cfemail=&quot;9ed6f7f9f6ded2adb0ae&quot;&gt;[email&amp;#160;protected]&lt;/a&gt;&lt;script cf-hash='f9e31' type=&quot;text/javascript&quot;&gt;\n/* &lt;![CDATA[ */!function(){try{var t=&quot;currentScript&quot;in document?document.currentScript:function(){for(var t=document.getElementsByTagName(&quot;script&quot;),e=t.length;e--;)if(t[e].getAttribute(&quot;cf-hash&quot;))return t[e]}();if(t&amp;&amp;t.previousSibling){var e,r,n,i,c=t.previousSibling,a=c.getAttribute(&quot;data-cfemail&quot;);if(a){for(e=&quot;&quot;,r=parseInt(a.substr(0,2),16),n=2;a.length-n;n+=2)i=parseInt(a.substr(n,2),16)^r,e+=String.fromCharCode(i);e=document.createTextNode(e),c.parentNode.replaceChild(e,c)}}}catch(u){}}();/* ]]&gt; */&lt;/script&gt;\nFormat settings, CABAC                   : Yes\nFormat settings, ReFrames                : 4 frames\nCodec ID                                 : V_MPEG4/ISO/AVC\nDuration                                 : 1h 28mn\nBit rate                                 : 1 300 Kbps\nWidth                                    : 720 pixels\nHeight                                   : 400 pixels\nDisplay aspect ratio                     : 16:9\nFrame rate mode                          : Constant\nFrame rate                               : 29.970 fps\nColor space                              : YUV\nChroma subsampling                       : 4:2:0\nBit depth                                : 8 bits\nScan type                                : Progressive\nBits/(Pixel*Frame)                       : 0.151\nStream size                              : 793 MiB (75%)\nWriting library                          : x264 core 125\nLanguage                                 : English\nDefault                                  : Yes\nForced                                   : No\nColor primaries                          : BT.601 NTSC\nTransfer characteristics                 : BT.709\nMatrix coefficients                      : BT.601\n\n\nID                                       : 2\nFormat                                   : AC-3\nFormat/Info                              : Audio Coding 3\nMode extension                           : CM (complete main)\nFormat settings, Endianness              : Big\nCodec ID                                 : A_AC3\nDuration                                 : 1h 28mn\nBit rate mode                            : Constant\nBit rate                                 : 384 Kbps\nChannel(s)                               : 6 channels\nChannel positions                        : Front: L C R, Side: L R, LFE\nSampling rate                            : 48.0 KHz\nBit depth                                : 16 bits\nCompression mode                         : Lossy\nStream size                              : 244 MiB (23%)\nLanguage                                 : English\nDefault                                  : Yes\nForced                                   : No\n\n\n\n &lt;a href=&quot;\nhttp://i.imgur.com/FB4poen.png&quot; rel=&quot;nofollow&quot; target=&quot;_NEW&quot;&gt;\nhttp://i.imgur.com/FB4poen.png&lt;/a&gt; &lt;a href=&quot;\nhttp://i.imgur.com/2vS6dBn.png&quot; rel=&quot;nofollow&quot; target=&quot;_NEW&quot;&gt;\nhttp://i.imgur.com/2vS6dBn.png&lt;/a&gt; &lt;a href=&quot;\nhttp://i.imgur.com/QGkPLQd.png&quot; rel=&quot;nofollow&quot; target=&quot;_NEW&quot;&gt;\nhttp://i.imgur.com/QGkPLQd.png&lt;/a&gt; &lt;a href=&quot;\nhttp://i.imgur.com/Tn1CwF5.png&quot; rel=&quot;nofollow&quot; target=&quot;_NEW&quot;&gt;\nhttp://i.imgur.com/Tn1CwF5.png&lt;/a&gt; &lt;a href=&quot;\nhttp://i.imgur.com/uV6Ok1y.png&quot; rel=&quot;nofollow&quot; target=&quot;_NEW&quot;&gt;\nhttp://i.imgur.com/uV6Ok1y.png&lt;/a&gt;\n","torrent":{"xt":"urn:btih:28c0d45b2f91456f3d0eda463d89cf10036b7371","amp;dn":"Dead.Drop.2013.DVDRip.X264.AC3+-+BiTo","amp;tr":["udp%3A%2F%2Ftracker.openbittorrent.com%3A80","udp%3A%2F%2Fopen.demonii.com%3A1337","udp%3A%2F%2Ftracker.coppersurfer.tk%3A6969","udp%3A%2F%2Fexodus.desync.com%3A6969"],"infoHash":"28c0d45b2f91456f3d0eda463d89cf10036b7371","infoHashBuffer":{"type":"Buffer","data":[40,192,212,91,47,145,69,111,61,14,218,70,61,137,207,16,3,107,115,113]},"announce":[],"urlList":[]}}